# xmcd CD database file
#
# Track frame offsets:
#	150
#	15078
#	34952
#	51015
#	69879
#	87123
#	95913
#	112605
#	127556
#	138703
#
# Disc length: 2132 seconds
#
# Revision: 0
# Processed by: cddbd v1.5.1PL0 Copyright (c) Steve Scherf et al.
# Submitted via: CDex 1.51
#
DISCID=7008520a
DTITLE=CICCA ROLL - CICCA ROLL
DYEAR=2004
DGENRE=J-POP
TTITLE0=SIVA
TTITLE1=モンゴル
TTITLE2=棘
TTITLE3=成仏
TTITLE4=マリア
TTITLE5=入水自殺
TTITLE6=飛行
TTITLE7=パレスチナ
TTITLE8=アラビア
TTITLE9=浄土
EXTD=YEAR: 2004
EXTT0=
EXTT1=
EXTT2=
EXTT3=
EXTT4=
EXTT5=
EXTT6=
EXTT7=
EXTT8=
EXTT9=
PLAYORDER=
